<svg width="314" height="100" viewBox="0 0 314 100" fill="none" xmlns="http://www.w3.org/2000/svg">
<g clip-path="url(#clip0_40_2)">
<path d="M270.33 72.7933L309.123 34L314.33 39.17L270.33 83.17L249.833 62.6733L255.003 57.5033L270.33 72.7933Z" fill="#8DC5E4"/>
<path d="M286.83 32.4968L292 37.6668L268.753 60.9135L263.583 55.7435L286.83 32.4968Z" fill="#497AA8"/>
<path d="M248 81.6668L227.503 61.1702L232.71 56.0002L253.17 76.4968L248 81.6668Z" fill="#497AA8"/>
</g>
<path d="M23.2266 32.7734H29.6719C29.5 35.0547 28.8672 37.0781 27.7734 38.8438C26.6797 40.5938 25.1562 41.9688 23.2031 42.9688C21.25 43.9688 18.8828 44.4688 16.1016 44.4688C13.9609 44.4688 12.0312 44.0938 10.3125 43.3438C8.60938 42.5781 7.14844 41.4922 5.92969 40.0859C4.72656 38.6641 3.80469 36.9609 3.16406 34.9766C2.52344 32.9766 2.20312 30.7344 2.20312 28.25V25.6484C2.20312 23.1641 2.53125 20.9219 3.1875 18.9219C3.84375 16.9219 4.78125 15.2188 6 13.8125C7.23438 12.3906 8.71094 11.2969 10.4297 10.5312C12.1641 9.76562 14.1016 9.38281 16.2422 9.38281C19.0234 9.38281 21.375 9.89844 23.2969 10.9297C25.2188 11.9453 26.7109 13.3438 27.7734 15.125C28.8359 16.9062 29.4766 18.9531 29.6953 21.2656H23.25C23.125 19.8281 22.8125 18.6094 22.3125 17.6094C21.8281 16.6094 21.0938 15.8516 20.1094 15.3359C19.1406 14.8047 17.8516 14.5391 16.2422 14.5391C14.9922 14.5391 13.8906 14.7734 12.9375 15.2422C12 15.7109 11.2188 16.4141 10.5938 17.3516C9.96875 18.2734 9.5 19.4297 9.1875 20.8203C8.875 22.1953 8.71875 23.7891 8.71875 25.6016V28.25C8.71875 29.9844 8.85938 31.5391 9.14062 32.9141C9.42188 34.2891 9.85938 35.4531 10.4531 36.4062C11.0469 37.3594 11.8125 38.0859 12.75 38.5859C13.6875 39.0859 14.8047 39.3359 16.1016 39.3359C17.6797 39.3359 18.9609 39.0859 19.9453 38.5859C20.9453 38.0859 21.7031 37.3516 22.2188 36.3828C22.75 35.4141 23.0859 34.2109 23.2266 32.7734ZM41.2256 8V44H35.0147V8H41.2256ZM40.2412 30.4062H38.4131C38.4131 28.6406 38.6475 27.0156 39.1162 25.5312C39.585 24.0469 40.2491 22.7578 41.1084 21.6641C41.9678 20.5547 42.9912 19.6953 44.1787 19.0859C45.3819 18.4766 46.71 18.1719 48.1631 18.1719C49.4131 18.1719 50.5459 18.3516 51.5616 18.7109C52.5928 19.0547 53.4756 19.6094 54.21 20.375C54.9444 21.1406 55.5069 22.1406 55.8975 23.375C56.3037 24.5938 56.5069 26.0781 56.5069 27.8281V44H50.2725V27.7812C50.2725 26.6094 50.1006 25.6875 49.7569 25.0156C49.4131 24.3281 48.9209 23.8359 48.2803 23.5391C47.6553 23.2422 46.8819 23.0938 45.96 23.0938C44.96 23.0938 44.1006 23.2891 43.3819 23.6797C42.6631 24.0547 42.0694 24.5781 41.6006 25.25C41.1475 25.9219 40.8037 26.6953 40.5694 27.5703C40.3506 28.4453 40.2412 29.3906 40.2412 30.4062ZM74.3184 44.4688C72.3966 44.4688 70.67 44.1562 69.1387 43.5312C67.6075 42.9062 66.3028 42.0391 65.2247 40.9297C64.1622 39.8047 63.3419 38.5 62.7637 37.0156C62.2012 35.5156 61.92 33.9062 61.92 32.1875V31.25C61.92 29.2969 62.2012 27.5234 62.7637 25.9297C63.3262 24.3203 64.1231 22.9375 65.1544 21.7812C66.1856 20.625 67.42 19.7344 68.8575 19.1094C70.295 18.4844 71.8809 18.1719 73.6153 18.1719C75.4122 18.1719 76.9981 18.4766 78.3731 19.0859C79.7481 19.6797 80.8966 20.5234 81.8184 21.6172C82.7403 22.7109 83.4356 24.0234 83.9044 25.5547C84.3731 27.0703 84.6075 28.75 84.6075 30.5938V33.1953H64.7325V28.9297H78.5137V28.4609C78.4825 27.4766 78.295 26.5781 77.9512 25.7656C77.6075 24.9375 77.0762 24.2812 76.3575 23.7969C75.6387 23.2969 74.7091 23.0469 73.5684 23.0469C72.6466 23.0469 71.8419 23.25 71.1544 23.6562C70.4825 24.0469 69.92 24.6094 69.4669 25.3438C69.0294 26.0625 68.7012 26.9219 68.4825 27.9219C68.2637 28.9219 68.1544 30.0312 68.1544 31.25V32.1875C68.1544 33.25 68.295 34.2344 68.5762 35.1406C68.8731 36.0469 69.3028 36.8359 69.8653 37.5078C70.4434 38.1641 71.1309 38.6797 71.9278 39.0547C72.7403 39.4141 73.6622 39.5938 74.6934 39.5938C75.9903 39.5938 77.1622 39.3438 78.2091 38.8438C79.2716 38.3281 80.1934 37.5703 80.9747 36.5703L84.0919 39.8047C83.5606 40.5859 82.8419 41.3359 81.9356 42.0547C81.045 42.7734 79.9669 43.3594 78.7012 43.8125C77.4356 44.25 75.9747 44.4688 74.3184 44.4688ZM100.122 39.5938C100.997 39.5938 101.778 39.4219 102.466 39.0781C103.153 38.7344 103.7 38.25 104.107 37.625C104.528 37 104.755 36.2734 104.786 35.4453H110.622C110.591 37.1641 110.107 38.7031 109.169 40.0625C108.232 41.4219 106.982 42.5 105.419 43.2969C103.872 44.0781 102.138 44.4688 100.216 44.4688C98.2628 44.4688 96.5597 44.1406 95.1066 43.4844C93.6534 42.8281 92.4425 41.9141 91.4737 40.7422C90.5206 39.5703 89.8019 38.2109 89.3175 36.6641C88.8487 35.1172 88.6144 33.4609 88.6144 31.6953V30.9453C88.6144 29.1797 88.8487 27.5234 89.3175 25.9766C89.8019 24.4297 90.5206 23.0703 91.4737 21.8984C92.4425 20.7266 93.6534 19.8125 95.1066 19.1562C96.5597 18.5 98.255 18.1719 100.192 18.1719C102.239 18.1719 104.036 18.5703 105.583 19.3672C107.146 20.1641 108.364 21.2891 109.239 22.7422C110.13 24.1953 110.591 25.9062 110.622 27.875H104.786C104.755 26.9688 104.552 26.1562 104.177 25.4375C103.802 24.7188 103.271 24.1406 102.583 23.7031C101.896 23.2656 101.06 23.0469 100.075 23.0469C99.0284 23.0469 98.1534 23.2656 97.4503 23.7031C96.7628 24.1406 96.2237 24.7422 95.8331 25.5078C95.4581 26.2578 95.1925 27.1016 95.0362 28.0391C94.8956 28.9609 94.8253 29.9297 94.8253 30.9453V31.6953C94.8253 32.7266 94.8956 33.7109 95.0362 34.6484C95.1925 35.5859 95.4581 36.4297 95.8331 37.1797C96.2237 37.9141 96.7628 38.5 97.4503 38.9375C98.1534 39.375 99.0441 39.5938 100.122 39.5938ZM121.895 7.97656V44H115.707V7.97656H121.895ZM137.785 18.6406L126.746 31.0391L120.77 37.1094L118.801 32.3047L123.418 26.4922L130.309 18.6406H137.785ZM131.457 44L123.606 32.1875L127.731 28.1797L138.629 44H131.457ZM148.191 23.8438V44H142.003V18.6406H147.839L148.191 23.8438ZM147.277 30.4062H145.378C145.378 28.6406 145.589 27.0156 146.011 25.5312C146.448 24.0469 147.089 22.7578 147.933 21.6641C148.777 20.5547 149.816 19.6953 151.05 19.0859C152.3 18.4766 153.745 18.1719 155.386 18.1719C156.527 18.1719 157.573 18.3438 158.527 18.6875C159.48 19.0156 160.3 19.5391 160.988 20.2578C161.691 20.9609 162.23 21.8828 162.605 23.0234C162.98 24.1484 163.167 25.5 163.167 27.0781V44H156.98V27.7109C156.98 26.5234 156.808 25.5938 156.464 24.9219C156.136 24.25 155.659 23.7812 155.034 23.5156C154.409 23.2344 153.659 23.0938 152.784 23.0938C151.816 23.0938 150.98 23.2891 150.277 23.6797C149.589 24.0547 149.019 24.5781 148.566 25.25C148.128 25.9219 147.8 26.6953 147.581 27.5703C147.378 28.4453 147.277 29.3906 147.277 30.4062ZM162.698 29.2578L160.144 29.7266C160.159 28.1328 160.378 26.6406 160.8 25.25C161.222 23.8438 161.839 22.6172 162.652 21.5703C163.48 20.5078 164.503 19.6797 165.722 19.0859C166.956 18.4766 168.378 18.1719 169.988 18.1719C171.238 18.1719 172.363 18.3516 173.363 18.7109C174.378 19.0547 175.245 19.6094 175.964 20.375C176.683 21.125 177.23 22.1016 177.605 23.3047C177.995 24.5078 178.191 25.9766 178.191 27.7109V44H171.956V27.6875C171.956 26.4531 171.784 25.5078 171.441 24.8516C171.113 24.1953 170.636 23.7422 170.011 23.4922C169.386 23.2266 168.652 23.0938 167.808 23.0938C166.948 23.0938 166.198 23.2578 165.558 23.5859C164.933 23.8984 164.402 24.3359 163.964 24.8984C163.542 25.4609 163.222 26.1172 163.003 26.8672C162.8 27.6016 162.698 28.3984 162.698 29.2578ZM198.674 38.6094V26.9141C198.674 26.0547 198.526 25.3125 198.229 24.6875C197.932 24.0625 197.479 23.5781 196.869 23.2344C196.26 22.8906 195.487 22.7188 194.549 22.7188C193.721 22.7188 192.994 22.8594 192.369 23.1406C191.76 23.4219 191.291 23.8203 190.963 24.3359C190.635 24.8359 190.471 25.4141 190.471 26.0703H184.26C184.26 25.0234 184.51 24.0312 185.01 23.0938C185.51 22.1406 186.221 21.2969 187.143 20.5625C188.08 19.8125 189.197 19.2266 190.494 18.8047C191.807 18.3828 193.276 18.1719 194.901 18.1719C196.822 18.1719 198.533 18.5 200.033 19.1562C201.549 19.7969 202.737 20.7656 203.596 22.0625C204.471 23.3594 204.908 24.9922 204.908 26.9609V38.0234C204.908 39.2891 204.987 40.375 205.143 41.2812C205.315 42.1719 205.565 42.9453 205.893 43.6016V44H199.588C199.291 43.3594 199.065 42.5469 198.908 41.5625C198.752 40.5625 198.674 39.5781 198.674 38.6094ZM199.541 28.5547L199.588 32.2344H195.674C194.705 32.2344 193.854 32.3359 193.119 32.5391C192.385 32.7266 191.783 33.0078 191.315 33.3828C190.846 33.7422 190.494 34.1797 190.26 34.6953C190.026 35.1953 189.908 35.7656 189.908 36.4062C189.908 37.0312 190.049 37.5938 190.33 38.0938C190.627 38.5938 191.049 38.9922 191.596 39.2891C192.158 39.5703 192.815 39.7109 193.565 39.7109C194.658 39.7109 195.612 39.4922 196.424 39.0547C197.237 38.6016 197.869 38.0547 198.322 37.4141C198.776 36.7734 199.018 36.1641 199.049 35.5859L200.83 38.2578C200.612 38.8984 200.283 39.5781 199.846 40.2969C199.408 41.0156 198.846 41.6875 198.158 42.3125C197.471 42.9375 196.643 43.4531 195.674 43.8594C194.705 44.2656 193.58 44.4688 192.299 44.4688C190.658 44.4688 189.19 44.1406 187.893 43.4844C186.596 42.8281 185.572 41.9297 184.822 40.7891C184.072 39.6484 183.697 38.3516 183.697 36.8984C183.697 35.5547 183.947 34.3672 184.447 33.3359C184.947 32.3047 185.69 31.4375 186.674 30.7344C187.658 30.0156 188.877 29.4766 190.33 29.1172C191.799 28.7422 193.479 28.5547 195.369 28.5547H199.541ZM217.634 23.8203V44H211.447V18.6406H217.306L217.634 23.8203ZM225.345 18.4766L225.251 24.2422C224.908 24.1797 224.517 24.1328 224.079 24.1016C223.658 24.0703 223.259 24.0547 222.884 24.0547C221.931 24.0547 221.095 24.1875 220.376 24.4531C219.658 24.7031 219.056 25.0703 218.572 25.5547C218.103 26.0391 217.743 26.6328 217.493 27.3359C217.243 28.0234 217.103 28.8047 217.072 29.6797L215.736 29.5156C215.736 27.9062 215.9 26.4141 216.228 25.0391C216.556 23.6641 217.033 22.4609 217.658 21.4297C218.283 20.3984 219.064 19.6016 220.001 19.0391C220.954 18.4609 222.048 18.1719 223.283 18.1719C223.626 18.1719 223.993 18.2031 224.384 18.2656C224.79 18.3125 225.111 18.3828 225.345 18.4766ZM235.891 7.97656V44H229.703V7.97656H235.891ZM251.782 18.6406L240.742 31.0391L234.766 37.1094L232.797 32.3047L237.414 26.4922L244.305 18.6406H251.782ZM245.453 44L237.602 32.1875L241.727 28.1797L252.625 44H245.453Z" fill="#497AA8"/>
<path d="M80.6953 59.9375H82.8867L88.4766 73.8477L94.0547 59.9375H96.2578L89.3203 77H87.6094L80.6953 59.9375ZM79.9805 59.9375H81.9141L82.2305 70.3438V77H79.9805V59.9375ZM95.0273 59.9375H96.9609V77H94.7109V70.3438L95.0273 59.9375ZM108.562 74.832V68.3047C108.562 67.8047 108.46 67.3711 108.257 67.0039C108.062 66.6289 107.765 66.3398 107.367 66.1367C106.968 65.9336 106.476 65.832 105.89 65.832C105.343 65.832 104.863 65.9258 104.449 66.1133C104.042 66.3008 103.722 66.5469 103.488 66.8516C103.261 67.1562 103.148 67.4844 103.148 67.8359H100.98C100.98 67.3828 101.097 66.9336 101.332 66.4883C101.566 66.043 101.902 65.6406 102.339 65.2812C102.785 64.9141 103.316 64.625 103.933 64.4141C104.558 64.1953 105.253 64.0859 106.019 64.0859C106.941 64.0859 107.753 64.2422 108.457 64.5547C109.167 64.8672 109.722 65.3398 110.121 65.9727C110.527 66.5977 110.73 67.3828 110.73 68.3281V74.2344C110.73 74.6562 110.765 75.1055 110.835 75.582C110.914 76.0586 111.027 76.4688 111.175 76.8125V77H108.914C108.804 76.75 108.718 76.418 108.656 76.0039C108.593 75.582 108.562 75.1914 108.562 74.832ZM108.937 69.3125L108.96 70.8359H106.769C106.152 70.8359 105.601 70.8867 105.117 70.9883C104.632 71.082 104.226 71.2266 103.898 71.4219C103.57 71.6172 103.32 71.8633 103.148 72.1602C102.976 72.4492 102.89 72.7891 102.89 73.1797C102.89 73.5781 102.98 73.9414 103.16 74.2695C103.339 74.5977 103.609 74.8594 103.968 75.0547C104.335 75.2422 104.785 75.3359 105.316 75.3359C105.98 75.3359 106.566 75.1953 107.074 74.9141C107.582 74.6328 107.984 74.2891 108.281 73.8828C108.585 73.4766 108.75 73.082 108.773 72.6992L109.699 73.7422C109.644 74.0703 109.496 74.4336 109.253 74.832C109.011 75.2305 108.687 75.6133 108.281 75.9805C107.882 76.3398 107.406 76.6406 106.851 76.8828C106.304 77.1172 105.687 77.2344 105 77.2344C104.14 77.2344 103.386 77.0664 102.738 76.7305C102.097 76.3945 101.597 75.9453 101.238 75.3828C100.886 74.8125 100.71 74.1758 100.71 73.4727C100.71 72.793 100.843 72.1953 101.109 71.6797C101.375 71.1562 101.757 70.7227 102.257 70.3789C102.757 70.0273 103.359 69.7617 104.062 69.582C104.765 69.4023 105.55 69.3125 106.417 69.3125H108.937ZM116.788 66.3125V77H114.62V64.3203H116.73L116.788 66.3125ZM120.749 64.25L120.737 66.2656C120.558 66.2266 120.386 66.2031 120.222 66.1953C120.065 66.1797 119.886 66.1719 119.683 66.1719C119.183 66.1719 118.741 66.25 118.358 66.4062C117.976 66.5625 117.651 66.7812 117.386 67.0625C117.12 67.3438 116.909 67.6797 116.753 68.0703C116.605 68.4531 116.507 68.875 116.46 69.3359L115.851 69.6875C115.851 68.9219 115.925 68.2031 116.073 67.5312C116.23 66.8594 116.468 66.2656 116.788 65.75C117.108 65.2266 117.515 64.8203 118.007 64.5312C118.507 64.2344 119.101 64.0859 119.788 64.0859C119.944 64.0859 120.124 64.1055 120.327 64.1445C120.53 64.1758 120.671 64.2109 120.749 64.25ZM125.413 59V77H123.233V59H125.413ZM133.159 64.3203L127.627 70.2383L124.534 73.4492L124.358 71.1406L126.573 68.4922L130.51 64.3203H133.159ZM131.178 77L126.655 70.9531L127.78 69.0195L133.733 77H131.178ZM140.904 77.2344C140.022 77.2344 139.221 77.0859 138.502 76.7891C137.791 76.4844 137.178 76.0586 136.662 75.5117C136.154 74.9648 135.764 74.3164 135.49 73.5664C135.217 72.8164 135.08 71.9961 135.08 71.1055V70.6133C135.08 69.582 135.232 68.6641 135.537 67.8594C135.842 67.0469 136.256 66.3594 136.779 65.7969C137.303 65.2344 137.897 64.8086 138.561 64.5195C139.225 64.2305 139.912 64.0859 140.623 64.0859C141.529 64.0859 142.311 64.2422 142.967 64.5547C143.631 64.8672 144.174 65.3047 144.596 65.8672C145.018 66.4219 145.33 67.0781 145.533 67.8359C145.736 68.5859 145.838 69.4062 145.838 70.2969V71.2695H136.369V69.5H143.67V69.3359C143.639 68.7734 143.522 68.2266 143.318 67.6953C143.123 67.1641 142.811 66.7266 142.381 66.3828C141.951 66.0391 141.365 65.8672 140.623 65.8672C140.131 65.8672 139.678 65.9727 139.264 66.1836C138.85 66.3867 138.494 66.6914 138.197 67.0977C137.9 67.5039 137.67 68 137.506 68.5859C137.342 69.1719 137.26 69.8477 137.26 70.6133V71.1055C137.26 71.707 137.342 72.2734 137.506 72.8047C137.678 73.3281 137.924 73.7891 138.244 74.1875C138.572 74.5859 138.967 74.8984 139.428 75.125C139.897 75.3516 140.428 75.4648 141.022 75.4648C141.787 75.4648 142.436 75.3086 142.967 74.9961C143.498 74.6836 143.963 74.2656 144.361 73.7422L145.674 74.7852C145.4 75.1992 145.053 75.5938 144.631 75.9688C144.209 76.3438 143.69 76.6484 143.072 76.8828C142.463 77.1172 141.74 77.2344 140.904 77.2344ZM154.158 64.3203V65.9844H147.302V64.3203H154.158ZM149.623 61.2383H151.791V73.8594C151.791 74.2891 151.857 74.6133 151.99 74.832C152.123 75.0508 152.295 75.1953 152.505 75.2656C152.716 75.3359 152.943 75.3711 153.185 75.3711C153.365 75.3711 153.552 75.3555 153.748 75.3242C153.951 75.2852 154.103 75.2539 154.205 75.2305L154.216 77C154.045 77.0547 153.818 77.1055 153.537 77.1523C153.263 77.207 152.931 77.2344 152.541 77.2344C152.009 77.2344 151.521 77.1289 151.076 76.918C150.63 76.707 150.275 76.3555 150.009 75.8633C149.752 75.3633 149.623 74.6914 149.623 73.8477V61.2383ZM159.349 66.7578V81.875H157.169V64.3203H159.161L159.349 66.7578ZM167.892 70.5547V70.8008C167.892 71.7227 167.782 72.5781 167.564 73.3672C167.345 74.1484 167.025 74.8281 166.603 75.4062C166.189 75.9844 165.677 76.4336 165.067 76.7539C164.458 77.0742 163.759 77.2344 162.97 77.2344C162.165 77.2344 161.454 77.1016 160.837 76.8359C160.22 76.5703 159.696 76.1836 159.267 75.6758C158.837 75.168 158.493 74.5586 158.235 73.8477C157.985 73.1367 157.814 72.3359 157.72 71.4453V70.1328C157.814 69.1953 157.989 68.3555 158.247 67.6133C158.505 66.8711 158.845 66.2383 159.267 65.7148C159.696 65.1836 160.216 64.7812 160.825 64.5078C161.435 64.2266 162.138 64.0859 162.935 64.0859C163.732 64.0859 164.439 64.2422 165.056 64.5547C165.673 64.8594 166.192 65.2969 166.614 65.8672C167.036 66.4375 167.353 67.1211 167.564 67.918C167.782 68.707 167.892 69.5859 167.892 70.5547ZM165.712 70.8008V70.5547C165.712 69.9219 165.646 69.3281 165.513 68.7734C165.38 68.2109 165.173 67.7188 164.892 67.2969C164.618 66.8672 164.267 66.5312 163.837 66.2891C163.407 66.0391 162.896 65.9141 162.302 65.9141C161.755 65.9141 161.278 66.0078 160.872 66.1953C160.474 66.3828 160.134 66.6367 159.853 66.957C159.571 67.2695 159.341 67.6289 159.161 68.0352C158.989 68.4336 158.86 68.8477 158.775 69.2773V72.3125C158.931 72.8594 159.15 73.375 159.431 73.8594C159.712 74.3359 160.087 74.7227 160.556 75.0195C161.025 75.3086 161.614 75.4531 162.325 75.4531C162.911 75.4531 163.415 75.332 163.837 75.0898C164.267 74.8398 164.618 74.5 164.892 74.0703C165.173 73.6406 165.38 73.1484 165.513 72.5938C165.646 72.0312 165.712 71.4336 165.712 70.8008ZM173.493 59V77H171.313V59H173.493ZM184.93 74.832V68.3047C184.93 67.8047 184.828 67.3711 184.625 67.0039C184.43 66.6289 184.133 66.3398 183.735 66.1367C183.336 65.9336 182.844 65.832 182.258 65.832C181.711 65.832 181.231 65.9258 180.817 66.1133C180.41 66.3008 180.09 66.5469 179.856 66.8516C179.629 67.1562 179.516 67.4844 179.516 67.8359H177.348C177.348 67.3828 177.465 66.9336 177.699 66.4883C177.934 66.043 178.27 65.6406 178.707 65.2812C179.152 64.9141 179.684 64.625 180.301 64.4141C180.926 64.1953 181.621 64.0859 182.387 64.0859C183.309 64.0859 184.121 64.2422 184.824 64.5547C185.535 64.8672 186.09 65.3398 186.488 65.9727C186.895 66.5977 187.098 67.3828 187.098 68.3281V74.2344C187.098 74.6562 187.133 75.1055 187.203 75.582C187.281 76.0586 187.395 76.4688 187.543 76.8125V77H185.281C185.172 76.75 185.086 76.418 185.024 76.0039C184.961 75.582 184.93 75.1914 184.93 74.832ZM185.305 69.3125L185.328 70.8359H183.137C182.52 70.8359 181.969 70.8867 181.485 70.9883C181 71.082 180.594 71.2266 180.266 71.4219C179.938 71.6172 179.688 71.8633 179.516 72.1602C179.344 72.4492 179.258 72.7891 179.258 73.1797C179.258 73.5781 179.348 73.9414 179.527 74.2695C179.707 74.5977 179.977 74.8594 180.336 75.0547C180.703 75.2422 181.152 75.3359 181.684 75.3359C182.348 75.3359 182.934 75.1953 183.442 74.9141C183.949 74.6328 184.352 74.2891 184.649 73.8828C184.953 73.4766 185.117 73.082 185.141 72.6992L186.067 73.7422C186.012 74.0703 185.863 74.4336 185.621 74.832C185.379 75.2305 185.055 75.6133 184.649 75.9805C184.25 76.3398 183.774 76.6406 183.219 76.8828C182.672 77.1172 182.055 77.2344 181.367 77.2344C180.508 77.2344 179.754 77.0664 179.106 76.7305C178.465 76.3945 177.965 75.9453 177.606 75.3828C177.254 74.8125 177.078 74.1758 177.078 73.4727C177.078 72.793 177.211 72.1953 177.477 71.6797C177.742 71.1562 178.125 70.7227 178.625 70.3789C179.125 70.0273 179.727 69.7617 180.43 69.582C181.133 69.4023 181.918 69.3125 182.785 69.3125H185.305ZM196.062 75.4531C196.578 75.4531 197.054 75.3477 197.492 75.1367C197.929 74.9258 198.289 74.6367 198.57 74.2695C198.851 73.8945 199.011 73.4688 199.05 72.9922H201.113C201.074 73.7422 200.82 74.4414 200.351 75.0898C199.89 75.7305 199.285 76.25 198.535 76.6484C197.785 77.0391 196.961 77.2344 196.062 77.2344C195.109 77.2344 194.277 77.0664 193.566 76.7305C192.863 76.3945 192.277 75.9336 191.808 75.3477C191.347 74.7617 191 74.0898 190.765 73.332C190.539 72.5664 190.425 71.7578 190.425 70.9062V70.4141C190.425 69.5625 190.539 68.7578 190.765 68C191 67.2344 191.347 66.5586 191.808 65.9727C192.277 65.3867 192.863 64.9258 193.566 64.5898C194.277 64.2539 195.109 64.0859 196.062 64.0859C197.054 64.0859 197.922 64.2891 198.664 64.6953C199.406 65.0938 199.988 65.6406 200.41 66.3359C200.84 67.0234 201.074 67.8047 201.113 68.6797H199.05C199.011 68.1562 198.863 67.6836 198.605 67.2617C198.355 66.8398 198.011 66.5039 197.574 66.2539C197.144 65.9961 196.64 65.8672 196.062 65.8672C195.398 65.8672 194.84 66 194.386 66.2656C193.941 66.5234 193.586 66.875 193.32 67.3203C193.062 67.7578 192.875 68.2461 192.757 68.7852C192.648 69.3164 192.593 69.8594 192.593 70.4141V70.9062C192.593 71.4609 192.648 72.0078 192.757 72.5469C192.867 73.0859 193.05 73.5742 193.308 74.0117C193.574 74.4492 193.929 74.8008 194.375 75.0664C194.828 75.3242 195.39 75.4531 196.062 75.4531ZM209.292 77.2344C208.409 77.2344 207.609 77.0859 206.89 76.7891C206.179 76.4844 205.566 76.0586 205.05 75.5117C204.542 74.9648 204.152 74.3164 203.878 73.5664C203.605 72.8164 203.468 71.9961 203.468 71.1055V70.6133C203.468 69.582 203.62 68.6641 203.925 67.8594C204.23 67.0469 204.644 66.3594 205.167 65.7969C205.691 65.2344 206.284 64.8086 206.948 64.5195C207.613 64.2305 208.3 64.0859 209.011 64.0859C209.917 64.0859 210.698 64.2422 211.355 64.5547C212.019 64.8672 212.562 65.3047 212.984 65.8672C213.405 66.4219 213.718 67.0781 213.921 67.8359C214.124 68.5859 214.226 69.4062 214.226 70.2969V71.2695H204.757V69.5H212.058V69.3359C212.027 68.7734 211.909 68.2266 211.706 67.6953C211.511 67.1641 211.198 66.7266 210.769 66.3828C210.339 66.0391 209.753 65.8672 209.011 65.8672C208.519 65.8672 208.066 65.9727 207.652 66.1836C207.238 66.3867 206.882 66.6914 206.585 67.0977C206.288 67.5039 206.058 68 205.894 68.5859C205.73 69.1719 205.648 69.8477 205.648 70.6133V71.1055C205.648 71.707 205.73 72.2734 205.894 72.8047C206.066 73.3281 206.312 73.7891 206.632 74.1875C206.96 74.5859 207.355 74.8984 207.816 75.125C208.284 75.3516 208.816 75.4648 209.409 75.4648C210.175 75.4648 210.823 75.3086 211.355 74.9961C211.886 74.6836 212.351 74.2656 212.749 73.7422L214.062 74.7852C213.788 75.1992 213.441 75.5938 213.019 75.9688C212.597 76.3438 212.077 76.6484 211.46 76.8828C210.851 77.1172 210.128 77.2344 209.292 77.2344Z" fill="#8DC5E4"/>
<defs>
<clipPath id="clip0_40_2">
<rect width="88" height="88" fill="white" transform="translate(226 12)"/>
</clipPath>
</defs>
</svg>
